<mxfile host="65bd71144e">
    <diagram id="lL7Lnk0XF0LIs9uVEGxD" name="Page-1">
        <mxGraphModel dx="1020" dy="1630" grid="1" gridSize="10" guides="1" tooltips="1" connect="1" arrows="1" fold="1" page="1" pageScale="1" pageWidth="850" pageHeight="1100" math="0" shadow="0">
            <root>
                <mxCell id="0"/>
                <mxCell id="1" parent="0"/>
                <mxCell id="2" value="" style="swimlane;childLayout=stackLayout;resizeParent=1;resizeParentMax=0;startSize=20;html=1;fillColor=#3333FF;strokeColor=#000000;fontColor=#000000;swimlaneFillColor=#CCCCFF;" parent="1" vertex="1">
                    <mxGeometry x="160" y="-1040" width="600" height="490" as="geometry"/>
                </mxCell>
                <mxCell id="3" value="&lt;font color=&quot;#000000&quot;&gt;Controller&lt;/font&gt;" style="swimlane;startSize=20;html=1;fillColor=#CCFFFF;labelBackgroundColor=none;swimlaneFillColor=#CCFFFF;strokeColor=#000000;" parent="2" vertex="1">
                    <mxGeometry y="20" width="150" height="470" as="geometry"/>
                </mxCell>
                <mxCell id="4" style="edgeStyle=none;html=1;exitX=0.5;exitY=1;exitDx=0;exitDy=0;exitPerimeter=0;entryX=0.5;entryY=0;entryDx=0;entryDy=0;entryPerimeter=0;strokeColor=#000000;" parent="3" source="5" target="8" edge="1">
                    <mxGeometry relative="1" as="geometry"/>
                </mxCell>
                <mxCell id="5" value="&lt;font color=&quot;#000000&quot;&gt;Initialisatie&lt;/font&gt;" style="shape=note;whiteSpace=wrap;html=1;backgroundOutline=1;darkOpacity=0.05;labelBackgroundColor=none;strokeColor=#36393d;fillColor=#ffff88;" parent="3" vertex="1">
                    <mxGeometry x="20" y="40" width="120" height="60" as="geometry"/>
                </mxCell>
                <mxCell id="6" value="&lt;font color=&quot;#000000&quot;&gt;sollicitatie&lt;br&gt;tonen&lt;br&gt;&lt;/font&gt;" style="shape=note;whiteSpace=wrap;html=1;backgroundOutline=1;darkOpacity=0.05;labelBackgroundColor=none;strokeColor=#36393d;fillColor=#ffff88;" parent="3" vertex="1">
                    <mxGeometry x="20" y="360" width="120" height="60" as="geometry"/>
                </mxCell>
                <mxCell id="7" style="edgeStyle=none;html=1;exitX=0.5;exitY=1;exitDx=0;exitDy=0;exitPerimeter=0;strokeColor=#000000;" parent="3" source="8" target="6" edge="1">
                    <mxGeometry relative="1" as="geometry"/>
                </mxCell>
                <mxCell id="8" value="&lt;font color=&quot;#000000&quot;&gt;solliciteren&lt;br&gt;&lt;/font&gt;" style="shape=note;whiteSpace=wrap;html=1;backgroundOutline=1;darkOpacity=0.05;labelBackgroundColor=none;strokeColor=#36393d;fillColor=#ffff88;" parent="3" vertex="1">
                    <mxGeometry x="20" y="124" width="120" height="60" as="geometry"/>
                </mxCell>
                <mxCell id="9" value="&lt;font color=&quot;#000000&quot;&gt;Busniness Logic&lt;/font&gt;" style="swimlane;startSize=20;html=1;fillColor=#CCCCFF;strokeColor=#000000;" parent="2" vertex="1">
                    <mxGeometry x="150" y="20" width="300" height="470" as="geometry"/>
                </mxCell>
                <mxCell id="10" value="&lt;font color=&quot;#000000&quot;&gt;toevoegen&lt;br&gt;sollicitatie&lt;br&gt;&lt;/font&gt;" style="shape=note;whiteSpace=wrap;html=1;backgroundOutline=1;darkOpacity=0.05;labelBackgroundColor=none;strokeColor=#36393d;fillColor=#ffff88;" parent="9" vertex="1">
                    <mxGeometry x="30" y="124" width="120" height="60" as="geometry"/>
                </mxCell>
                <mxCell id="11" value="&lt;font color=&quot;#000000&quot;&gt;Selecteer&amp;nbsp;&lt;br&gt;sollicitatie&lt;br&gt;&lt;/font&gt;" style="shape=note;whiteSpace=wrap;html=1;backgroundOutline=1;darkOpacity=0.05;labelBackgroundColor=none;strokeColor=#36393d;fillColor=#ffff88;" parent="9" vertex="1">
                    <mxGeometry x="30" y="220" width="120" height="60" as="geometry"/>
                </mxCell>
                <mxCell id="41" value="&lt;font color=&quot;#000000&quot;&gt;ophalen&lt;br&gt;vacature&lt;br&gt;&lt;/font&gt;" style="shape=note;whiteSpace=wrap;html=1;backgroundOutline=1;darkOpacity=0.05;labelBackgroundColor=none;strokeColor=#36393d;fillColor=#ffff88;" parent="9" vertex="1">
                    <mxGeometry x="160" y="310" width="120" height="60" as="geometry"/>
                </mxCell>
                <mxCell id="42" value="&lt;font color=&quot;#000000&quot;&gt;ophalen&lt;br&gt;user&lt;br&gt;&lt;/font&gt;" style="shape=note;whiteSpace=wrap;html=1;backgroundOutline=1;darkOpacity=0.05;labelBackgroundColor=none;strokeColor=#36393d;fillColor=#ffff88;" parent="9" vertex="1">
                    <mxGeometry x="160" y="390" width="120" height="60" as="geometry"/>
                </mxCell>
                <mxCell id="12" value="&lt;font color=&quot;#000000&quot;&gt;Model&lt;/font&gt;" style="swimlane;startSize=20;html=1;strokeColor=#000000;swimlaneFillColor=#CCE5FF;fillColor=#CCE5FF;" parent="2" vertex="1">
                    <mxGeometry x="450" y="20" width="150" height="470" as="geometry"/>
                </mxCell>
                <mxCell id="13" value="SOLLICITATIE" style="swimlane;whiteSpace=wrap;html=1;labelBackgroundColor=none;strokeColor=#000000;fontColor=#000000;fillColor=#3399FF;startSize=23;" parent="12" vertex="1">
                    <mxGeometry x="15" y="40" width="120" height="130" as="geometry"/>
                </mxCell>
                <mxCell id="14" value="id&lt;br&gt;vacature_id&lt;br&gt;user_id&lt;br&gt;uitgenodigd" style="text;html=1;strokeColor=none;fillColor=none;align=center;verticalAlign=middle;whiteSpace=wrap;rounded=0;labelBackgroundColor=none;fontColor=#000000;" parent="13" vertex="1">
                    <mxGeometry x="30" y="40" width="60" height="60" as="geometry"/>
                </mxCell>
                <mxCell id="44" value="&lt;font color=&quot;#000000&quot;&gt;Selecteer&amp;nbsp;&lt;br&gt;vacature&lt;br&gt;&lt;/font&gt;" style="shape=note;whiteSpace=wrap;html=1;backgroundOutline=1;darkOpacity=0.05;labelBackgroundColor=none;strokeColor=#36393d;fillColor=#ffff88;" parent="12" vertex="1">
                    <mxGeometry x="15" y="309" width="120" height="60" as="geometry"/>
                </mxCell>
                <mxCell id="43" value="&lt;font color=&quot;#000000&quot;&gt;Selecteer&amp;nbsp;&lt;br&gt;user&lt;br&gt;&lt;/font&gt;" style="shape=note;whiteSpace=wrap;html=1;backgroundOutline=1;darkOpacity=0.05;labelBackgroundColor=none;strokeColor=#36393d;fillColor=#ffff88;" parent="12" vertex="1">
                    <mxGeometry x="20" y="390" width="120" height="60" as="geometry"/>
                </mxCell>
                <mxCell id="15" value="" style="edgeStyle=none;html=1;strokeColor=#000000;" parent="2" source="8" target="10" edge="1">
                    <mxGeometry relative="1" as="geometry"/>
                </mxCell>
                <mxCell id="17" style="edgeStyle=none;html=1;entryX=0;entryY=0;entryDx=120.00000000000001;entryDy=30;entryPerimeter=0;strokeColor=#000000;" parent="2" source="13" target="11" edge="1">
                    <mxGeometry relative="1" as="geometry">
                        <Array as="points">
                            <mxPoint x="524.9999999999995" y="270"/>
                        </Array>
                    </mxGeometry>
                </mxCell>
                <mxCell id="45" style="edgeStyle=none;html=1;exitX=0;exitY=0.5;exitDx=0;exitDy=0;exitPerimeter=0;strokeColor=#000000;" parent="2" source="44" target="41" edge="1">
                    <mxGeometry relative="1" as="geometry"/>
                </mxCell>
                <mxCell id="46" style="edgeStyle=none;html=1;entryX=0;entryY=0;entryDx=120;entryDy=30;entryPerimeter=0;strokeColor=#000000;" parent="2" source="43" target="42" edge="1">
                    <mxGeometry relative="1" as="geometry"/>
                </mxCell>
                <mxCell id="37" style="edgeStyle=none;html=1;entryX=0;entryY=0.5;entryDx=0;entryDy=0;entryPerimeter=0;strokeColor=#000000;" parent="1" source="34" target="5" edge="1">
                    <mxGeometry relative="1" as="geometry"/>
                </mxCell>
                <mxCell id="34" value="Actor" style="shape=umlActor;verticalLabelPosition=bottom;verticalAlign=top;html=1;outlineConnect=0;labelBackgroundColor=none;strokeColor=#000000;fontColor=#000000;fillColor=#CCE5FF;" parent="1" vertex="1">
                    <mxGeometry x="50" y="-980" width="30" height="60" as="geometry"/>
                </mxCell>
                <mxCell id="35" value="" style="ellipse;whiteSpace=wrap;html=1;aspect=fixed;labelBackgroundColor=none;strokeColor=#000000;fontColor=#000000;fillColor=#3399FF;" parent="1" vertex="1">
                    <mxGeometry x="42.5" y="-651" width="45" height="45" as="geometry"/>
                </mxCell>
                <mxCell id="36" style="edgeStyle=none;html=1;entryX=1;entryY=0.5;entryDx=0;entryDy=0;strokeColor=#000000;" parent="1" source="6" target="35" edge="1">
                    <mxGeometry relative="1" as="geometry"/>
                </mxCell>
                <mxCell id="40" style="edgeStyle=none;html=1;strokeColor=#000000;" parent="1" source="10" edge="1">
                    <mxGeometry relative="1" as="geometry">
                        <mxPoint x="630" y="-866" as="targetPoint"/>
                    </mxGeometry>
                </mxCell>
                <mxCell id="47" style="edgeStyle=none;html=1;strokeColor=#000000;" parent="1" source="11" edge="1">
                    <mxGeometry relative="1" as="geometry">
                        <mxPoint x="470" y="-680" as="targetPoint"/>
                        <Array as="points">
                            <mxPoint x="400" y="-680"/>
                        </Array>
                    </mxGeometry>
                </mxCell>
                <mxCell id="48" style="edgeStyle=none;html=1;strokeColor=#000000;" parent="1" source="11" edge="1">
                    <mxGeometry relative="1" as="geometry">
                        <mxPoint x="470" y="-600" as="targetPoint"/>
                        <Array as="points">
                            <mxPoint x="400" y="-600"/>
                        </Array>
                    </mxGeometry>
                </mxCell>
                <mxCell id="49" value="" style="swimlane;childLayout=stackLayout;resizeParent=1;resizeParentMax=0;startSize=20;html=1;fillColor=#3333FF;strokeColor=#000000;fontColor=#000000;swimlaneFillColor=#CCCCFF;" parent="1" vertex="1">
                    <mxGeometry x="160" y="-530" width="600" height="430" as="geometry"/>
                </mxCell>
                <mxCell id="50" value="&lt;font color=&quot;#000000&quot;&gt;Controller&lt;/font&gt;" style="swimlane;startSize=20;html=1;fillColor=#CCFFFF;labelBackgroundColor=none;swimlaneFillColor=#CCFFFF;strokeColor=#000000;" parent="49" vertex="1">
                    <mxGeometry y="20" width="150" height="410" as="geometry"/>
                </mxCell>
                <mxCell id="53" value="&lt;font color=&quot;#000000&quot;&gt;Busniness Logic&lt;/font&gt;" style="swimlane;startSize=20;html=1;fillColor=#CCCCFF;strokeColor=#000000;" parent="49" vertex="1">
                    <mxGeometry x="150" y="20" width="300" height="410" as="geometry"/>
                </mxCell>
                <mxCell id="54" style="edgeStyle=none;html=1;exitX=0.5;exitY=1;exitDx=0;exitDy=0;exitPerimeter=0;entryX=0;entryY=0.5;entryDx=0;entryDy=0;entryPerimeter=0;strokeColor=#000000;fontColor=#000000;" parent="53" source="55" target="56" edge="1">
                    <mxGeometry relative="1" as="geometry">
                        <Array as="points">
                            <mxPoint x="89.99999999999955" y="270"/>
                        </Array>
                    </mxGeometry>
                </mxCell>
                <mxCell id="87" style="edgeStyle=none;html=1;entryX=0.014;entryY=0.708;entryDx=0;entryDy=0;entryPerimeter=0;strokeColor=#000000;" edge="1" parent="53" source="55" target="86">
                    <mxGeometry relative="1" as="geometry">
                        <Array as="points">
                            <mxPoint x="90" y="362"/>
                        </Array>
                    </mxGeometry>
                </mxCell>
                <mxCell id="55" value="&lt;font color=&quot;#000000&quot;&gt;Selecteer&lt;br&gt;vacature&lt;br&gt;&lt;/font&gt;" style="shape=note;whiteSpace=wrap;html=1;backgroundOutline=1;darkOpacity=0.05;labelBackgroundColor=none;strokeColor=#36393d;fillColor=#ffff88;" parent="53" vertex="1">
                    <mxGeometry x="30" y="90" width="120" height="60" as="geometry"/>
                </mxCell>
                <mxCell id="56" value="&lt;font color=&quot;#000000&quot;&gt;Ophalen&lt;br&gt;logo&lt;br&gt;&lt;/font&gt;" style="shape=note;whiteSpace=wrap;html=1;backgroundOutline=1;darkOpacity=0.05;labelBackgroundColor=none;strokeColor=#36393d;fillColor=#ffff88;" parent="53" vertex="1">
                    <mxGeometry x="150" y="240" width="120" height="60" as="geometry"/>
                </mxCell>
                <mxCell id="86" value="&lt;font color=&quot;#000000&quot;&gt;Ophalen&lt;br&gt;user&lt;br&gt;&lt;/font&gt;" style="shape=note;whiteSpace=wrap;html=1;backgroundOutline=1;darkOpacity=0.05;labelBackgroundColor=none;strokeColor=#36393d;fillColor=#ffff88;" vertex="1" parent="53">
                    <mxGeometry x="150" y="320" width="120" height="60" as="geometry"/>
                </mxCell>
                <mxCell id="57" value="&lt;font color=&quot;#000000&quot;&gt;Model&lt;/font&gt;" style="swimlane;startSize=20;html=1;strokeColor=#000000;swimlaneFillColor=#CCE5FF;fillColor=#CCE5FF;" parent="49" vertex="1">
                    <mxGeometry x="450" y="20" width="150" height="410" as="geometry"/>
                </mxCell>
                <mxCell id="58" value="VACATURE" style="swimlane;whiteSpace=wrap;html=1;labelBackgroundColor=none;strokeColor=#000000;fontColor=#000000;fillColor=#3399FF;" parent="57" vertex="1">
                    <mxGeometry x="15" y="40" width="120" height="160" as="geometry"/>
                </mxCell>
                <mxCell id="59" value="id&lt;br&gt;user_id&lt;br&gt;logo_id&lt;br&gt;titel&lt;br&gt;datum&lt;br&gt;niveau&lt;br&gt;plaats&lt;br&gt;omschrijving" style="text;html=1;strokeColor=none;fillColor=none;align=center;verticalAlign=middle;whiteSpace=wrap;rounded=0;labelBackgroundColor=none;fontColor=#000000;" parent="58" vertex="1">
                    <mxGeometry x="30" y="27" width="60" height="130" as="geometry"/>
                </mxCell>
                <mxCell id="60" value="&lt;font color=&quot;#000000&quot;&gt;Selecteer&lt;br&gt;logo&lt;/font&gt;" style="shape=note;whiteSpace=wrap;html=1;backgroundOutline=1;darkOpacity=0.05;labelBackgroundColor=none;strokeColor=#36393d;fillColor=#ffff88;" parent="57" vertex="1">
                    <mxGeometry x="15" y="240" width="120" height="60" as="geometry"/>
                </mxCell>
                <mxCell id="85" value="&lt;font color=&quot;#000000&quot;&gt;Selecteer&lt;br&gt;user&lt;/font&gt;" style="shape=note;whiteSpace=wrap;html=1;backgroundOutline=1;darkOpacity=0.05;labelBackgroundColor=none;strokeColor=#36393d;fillColor=#ffff88;" vertex="1" parent="57">
                    <mxGeometry x="15" y="320" width="120" height="60" as="geometry"/>
                </mxCell>
                <mxCell id="61" style="edgeStyle=none;html=1;strokeColor=#000000;fontColor=#000000;" parent="49" source="58" target="55" edge="1">
                    <mxGeometry relative="1" as="geometry"/>
                </mxCell>
                <mxCell id="80" value="" style="edgeStyle=none;html=1;strokeColor=#000000;" edge="1" parent="49" source="60" target="56">
                    <mxGeometry relative="1" as="geometry"/>
                </mxCell>
                <mxCell id="88" value="" style="edgeStyle=none;html=1;strokeColor=#000000;" edge="1" parent="49" source="85" target="86">
                    <mxGeometry relative="1" as="geometry"/>
                </mxCell>
                <mxCell id="62" value="" style="swimlane;childLayout=stackLayout;resizeParent=1;resizeParentMax=0;startSize=20;html=1;fillColor=#3333FF;strokeColor=#000000;fontColor=#000000;swimlaneFillColor=#CCCCFF;" parent="1" vertex="1">
                    <mxGeometry x="160" y="-80" width="600" height="190" as="geometry"/>
                </mxCell>
                <mxCell id="63" value="&lt;font color=&quot;#000000&quot;&gt;Controller&lt;/font&gt;" style="swimlane;startSize=20;html=1;fillColor=#CCFFFF;labelBackgroundColor=none;swimlaneFillColor=#CCFFFF;strokeColor=#000000;" parent="62" vertex="1">
                    <mxGeometry y="20" width="150" height="170" as="geometry"/>
                </mxCell>
                <mxCell id="64" value="&lt;font color=&quot;#000000&quot;&gt;Busniness Logic&lt;/font&gt;" style="swimlane;startSize=20;html=1;fillColor=#CCCCFF;strokeColor=#000000;" parent="62" vertex="1">
                    <mxGeometry x="150" y="20" width="300" height="170" as="geometry"/>
                </mxCell>
                <mxCell id="65" value="&lt;font color=&quot;#000000&quot;&gt;Selecteer&lt;br&gt;logo&lt;/font&gt;" style="shape=note;whiteSpace=wrap;html=1;backgroundOutline=1;darkOpacity=0.05;labelBackgroundColor=none;strokeColor=#36393d;fillColor=#ffff88;" parent="64" vertex="1">
                    <mxGeometry x="20.000000000000455" y="61.5" width="120" height="60" as="geometry"/>
                </mxCell>
                <mxCell id="66" value="&lt;font color=&quot;#000000&quot;&gt;Model&lt;/font&gt;" style="swimlane;startSize=20;html=1;strokeColor=#000000;swimlaneFillColor=#CCE5FF;fillColor=#CCE5FF;" parent="62" vertex="1">
                    <mxGeometry x="450" y="20" width="150" height="170" as="geometry"/>
                </mxCell>
                <mxCell id="67" value="LOGO" style="swimlane;whiteSpace=wrap;html=1;labelBackgroundColor=none;strokeColor=#000000;fontColor=#000000;fillColor=#3399FF;" parent="66" vertex="1">
                    <mxGeometry x="15" y="40" width="120" height="100" as="geometry"/>
                </mxCell>
                <mxCell id="68" value="id&lt;br&gt;logo" style="text;html=1;strokeColor=none;fillColor=none;align=center;verticalAlign=middle;whiteSpace=wrap;rounded=0;labelBackgroundColor=none;fontColor=#000000;" parent="67" vertex="1">
                    <mxGeometry x="30" y="21.5" width="60" height="77" as="geometry"/>
                </mxCell>
                <mxCell id="77" style="edgeStyle=none;html=1;strokeColor=#000000;" parent="62" source="67" target="65" edge="1">
                    <mxGeometry relative="1" as="geometry"/>
                </mxCell>
                <mxCell id="69" value="" style="swimlane;childLayout=stackLayout;resizeParent=1;resizeParentMax=0;startSize=20;html=1;fillColor=#3333FF;strokeColor=#000000;fontColor=#000000;swimlaneFillColor=#CCCCFF;" parent="1" vertex="1">
                    <mxGeometry x="160" y="130" width="600" height="220" as="geometry"/>
                </mxCell>
                <mxCell id="70" value="&lt;font color=&quot;#000000&quot;&gt;Controller&lt;/font&gt;" style="swimlane;startSize=20;html=1;fillColor=#CCFFFF;labelBackgroundColor=none;swimlaneFillColor=#CCFFFF;strokeColor=#000000;" parent="69" vertex="1">
                    <mxGeometry y="20" width="150" height="200" as="geometry"/>
                </mxCell>
                <mxCell id="71" value="&lt;font color=&quot;#000000&quot;&gt;Busniness Logic&lt;/font&gt;" style="swimlane;startSize=20;html=1;fillColor=#CCCCFF;strokeColor=#000000;" parent="69" vertex="1">
                    <mxGeometry x="150" y="20" width="300" height="200" as="geometry"/>
                </mxCell>
                <mxCell id="72" value="&lt;font color=&quot;#000000&quot;&gt;Selecteer&lt;br&gt;user&lt;/font&gt;" style="shape=note;whiteSpace=wrap;html=1;backgroundOutline=1;darkOpacity=0.05;labelBackgroundColor=none;strokeColor=#36393d;fillColor=#ffff88;" parent="71" vertex="1">
                    <mxGeometry x="20.000000000000455" y="70.5" width="120" height="60" as="geometry"/>
                </mxCell>
                <mxCell id="73" value="&lt;font color=&quot;#000000&quot;&gt;Model&lt;/font&gt;" style="swimlane;startSize=20;html=1;strokeColor=#000000;swimlaneFillColor=#CCE5FF;fillColor=#CCE5FF;" parent="69" vertex="1">
                    <mxGeometry x="450" y="20" width="150" height="200" as="geometry"/>
                </mxCell>
                <mxCell id="74" value="USER" style="swimlane;whiteSpace=wrap;html=1;labelBackgroundColor=none;strokeColor=#000000;fontColor=#000000;fillColor=#3399FF;" parent="73" vertex="1">
                    <mxGeometry x="15" y="40" width="120" height="120" as="geometry"/>
                </mxCell>
                <mxCell id="75" value="id&lt;br&gt;role&lt;br&gt;email&lt;br&gt;....&lt;br&gt;...." style="text;html=1;strokeColor=none;fillColor=none;align=center;verticalAlign=middle;whiteSpace=wrap;rounded=0;labelBackgroundColor=none;fontColor=#000000;" parent="74" vertex="1">
                    <mxGeometry x="30" y="30" width="60" height="77" as="geometry"/>
                </mxCell>
                <mxCell id="79" style="edgeStyle=none;html=1;entryX=0;entryY=0;entryDx=120;entryDy=30;entryPerimeter=0;strokeColor=#000000;" parent="69" source="74" target="72" edge="1">
                    <mxGeometry relative="1" as="geometry"/>
                </mxCell>
            </root>
        </mxGraphModel>
    </diagram>
</mxfile>